HIERARCHY
ROOT Hips
{
	OFFSET	0.00	0.00	0.00
	CHANNELS 6 Xposition Yposition Zposition Zrotation Xrotation Yrotation
	JOINT Chest
	{
		OFFSET	 0.00	 5.21	 0.00
		CHANNELS 3 Zrotation Xrotation Yrotation
		JOINT Neck
		{
			OFFSET	 0.00	 18.65	 0.00
			CHANNELS 3 Zrotation Xrotation Yrotation
			JOINT Head
			{
				OFFSET	 0.00	 5.45	 0.00
				CHANNELS 3 Zrotation Xrotation Yrotation
				End Site 
				{
					OFFSET	 0.00	 3.87	 0.00
				}
			}
		}
		JOINT LeftCollar
		{
			OFFSET	 1.12	 16.23	 1.87
			CHANNELS 3 Zrotation Xrotation Yrotation
			JOINT LeftUpArm
			{
				OFFSET	 5.54	 0.00	 0.00
				CHANNELS 3 Zrotation Xrotation Yrotation
				JOINT LeftLowArm
				{
					OFFSET	 0.00	-11.96	 0.00
					CHANNELS 3 Zrotation Xrotation Yrotation
					JOINT LeftHand
					{
						OFFSET	 0.00	-9.93	 0.00
						CHANNELS 3 Zrotation Xrotation Yrotation
						End Site 
						{
							OFFSET	 0.00	-7.00	 0.00
						}
					}
				}
			}
		}
		JOINT RightCollar
		{
			OFFSET	-1.12	 16.23	 1.87
			CHANNELS 3 Zrotation Xrotation Yrotation
			JOINT RightUpArm
			{
				OFFSET	-6.07	 0.00	 0.00
				CHANNELS 3 Zrotation Xrotation Yrotation
				JOINT RightLowArm
				{
					OFFSET	 0.00	-11.82	 0.00
					CHANNELS 3 Zrotation Xrotation Yrotation
					JOINT RightHand
					{
						OFFSET	 0.00	-10.65	 0.00
						CHANNELS 3 Zrotation Xrotation Yrotation
						End Site 
						{
							OFFSET	 0.00	-7.00	 0.00
						}
					}
				}
			}
		}
	}
	JOINT LeftUpLeg
	{
		OFFSET	 3.91	 0.00	 0.00
		CHANNELS 3 Zrotation Xrotation Yrotation
		JOINT LeftLowLeg
		{
			OFFSET	 0.00	-18.34	 0.00
			CHANNELS 3 Zrotation Xrotation Yrotation
			JOINT LeftFoot
			{
				OFFSET	 0.00	-17.37	 0.00
				CHANNELS 3 Zrotation Xrotation Yrotation
				End Site 
				{
					OFFSET	 0.00	-3.46	 0.00
				}
			}
		}
	}
	JOINT RightUpLeg
	{
		OFFSET	-3.91	 0.00	 0.00
		CHANNELS 3 Zrotation Xrotation Yrotation
		JOINT RightLowLeg
		{
			OFFSET	 0.00	-17.63	 0.00
			CHANNELS 3 Zrotation Xrotation Yrotation
			JOINT RightFoot
			{
				OFFSET	 0.00	-17.14	 0.00
				CHANNELS 3 Zrotation Xrotation Yrotation
				End Site 
				{
					OFFSET	 0.00	-3.75	 0.00
				}
			}
		}
	}
}
MOTION
Frames:    24
Frame Time: 0.033333
 5.18	 38.81	-11.45	 4.05	 26.28	 174.15	 3.72	 23.49	-7.49	-0.05	 31.51	 0.00	-13.62	-39.67	-52.14	-6.47	 0.00	 4.28	 28.34	 25.64	-11.06	-10.20	-54.69	-11.51	 0.61	-2.06	 0.02	 0.67	 0.00	-20.95	-41.06	 18.75	 16.85	 22.11	-47.97	 24.06	-1.85	 3.84	 0.12	 12.53	 29.95	-6.33	 3.59	 3.58	 22.69	 0.00	-7.33	 0.00	-17.76	 33.75	 10.09	 8.31	 4.97	-12.88	 0.00	-12.34	 0.00	
 5.14	 38.75	-11.41	 4.26	 25.99	 172.89	 3.54	 23.38	-6.87	-0.05	 31.20	 0.00	-13.64	-39.66	-54.17	-6.16	 0.00	 4.57	 28.25	 24.64	-10.52	-12.38	-53.07	-14.59	 0.61	-2.11	 0.02	 0.46	 0.00	-21.22	-40.81	 18.79	 16.81	 21.85	-47.85	 23.74	-1.86	 3.85	 0.12	 11.96	 30.26	-6.09	 3.62	 3.19	 23.74	 0.00	-7.28	 0.00	-18.22	 32.88	 10.13	 8.12	 5.28	-11.90	 0.00	-12.37	 0.00	
 5.09	 38.70	-11.35	 4.49	 25.61	 171.66	 3.43	 23.23	-6.12	-0.13	 30.87	 0.00	-13.69	-39.65	-55.70	-5.92	 0.00	 4.60	 28.16	 23.71	-9.96	-14.34	-51.53	-17.48	 0.60	-2.17	 0.02	 0.25	 0.00	-21.49	-40.52	 18.92	 16.82	 21.54	-47.93	 23.31	-1.86	 3.85	 0.12	 11.46	 30.41	-5.86	 3.58	 2.84	 24.72	 0.00	-7.34	 0.00	-18.54	 31.94	 10.06	 7.85	 5.54	-10.78	 0.00	-12.35	 0.00	
 5.05	 38.68	-11.29	 4.70	 25.22	 170.50	 3.41	 23.04	-5.65	-0.23	 30.59	 0.00	-13.75	-39.63	-56.68	-5.82	 0.00	 4.76	 28.03	 23.11	-9.59	-15.28	-50.85	-18.87	 0.60	-2.20	 0.02	 0.04	 0.00	-21.27	-40.10	 19.23	 16.81	 20.98	-48.09	 22.53	-1.86	 3.85	 0.12	 11.01	 30.52	-5.64	 3.49	 2.44	 25.80	 0.00	-7.38	 0.00	-18.85	 31.02	 9.98	 7.73	 5.79	-9.70	 0.00	-12.37	 0.00	
 5.00	 38.66	-11.23	 4.84	 24.86	 169.48	 3.44	 22.84	-5.54	-0.32	 30.38	 0.00	-13.80	-39.62	-57.05	-5.89	 0.00	 5.30	 28.06	 22.68	-9.47	-15.67	-50.62	-19.41	 0.60	-2.21	 0.02	-0.12	 0.00	-20.73	-39.61	 19.56	 16.70	 20.28	-48.25	 21.54	-1.86	 3.86	 0.12	 10.55	 30.62	-5.42	 3.42	 2.00	 26.96	 0.00	-7.48	 0.00	-19.22	 30.17	 9.94	 7.82	 5.99	-8.87	 0.00	-12.41	 0.00	
 4.96	 38.65	-11.19	 4.90	 24.51	 168.64	 3.46	 22.61	-5.40	-0.38	 30.27	 0.00	-13.83	-39.61	-56.90	-6.03	 0.00	 5.85	 28.26	 22.28	-9.44	-16.01	-50.45	-19.85	 0.60	-2.21	 0.02	-0.22	 0.00	-20.46	-39.25	 19.75	 16.61	 19.97	-48.35	 21.11	-1.86	 3.85	 0.12	 10.05	 30.57	-5.15	 3.38	 1.78	 27.94	 0.00	-7.66	 0.00	-19.57	 29.37	 9.89	 7.92	 6.19	-8.14	 0.00	-12.43	 0.00	
 4.92	 38.64	-11.16	 4.89	 24.14	 167.98	 3.42	 22.33	-4.94	-0.42	 30.27	 0.00	-13.86	-39.60	-56.33	-6.13	 0.00	 5.81	 28.47	 22.09	-9.41	-16.14	-50.34	-20.01	 0.60	-2.21	 0.02	-0.24	 0.00	-20.57	-39.15	 19.91	 16.70	 20.13	-48.37	 21.37	-1.86	 3.85	 0.12	 9.56	 30.36	-4.87	 3.40	 1.78	 28.67	 0.00	-7.86	 0.00	-19.84	 28.61	 9.80	 7.94	 6.42	-7.35	 0.00	-12.42	 0.00	
 4.88	 38.62	-11.13	 4.84	 23.75	 167.44	 3.35	 21.97	-4.31	-0.45	 30.34	 0.00	-13.86	-39.60	-55.36	-6.17	 0.00	 5.23	 28.54	 22.19	-9.39	-15.83	-50.24	-19.63	 0.59	-2.21	 0.02	-0.16	 0.00	-20.79	-39.27	 20.05	 16.92	 20.46	-48.24	 21.90	-1.86	 3.86	 0.13	 9.04	 30.03	-4.55	 3.56	 1.97	 29.27	 0.00	-8.07	 0.00	-20.03	 27.88	 9.67	 7.87	 6.67	-6.61	 0.00	-12.38	 0.00	
 4.84	 38.60	-11.11	 4.79	 23.40	 166.93	 3.29	 21.63	-3.89	-0.45	 30.44	 0.00	-13.83	-39.61	-54.06	-6.17	 0.00	 4.72	 28.50	 22.37	-9.37	-15.25	-50.07	-18.92	 0.59	-2.22	 0.02	-0.05	 0.00	-20.76	-39.53	 20.08	 17.09	 20.89	-47.95	 22.61	-1.86	 3.87	 0.13	 8.49	 29.70	-4.23	 3.82	 2.21	 29.85	 0.00	-8.22	 0.00	-20.15	 27.19	 9.52	 7.72	 6.91	-6.09	 0.00	-12.40	 0.00	
 4.81	 38.58	-11.09	 4.74	 23.14	 166.50	 3.27	 21.42	-3.78	-0.38	 30.54	 0.00	-13.75	-39.63	-52.46	-6.25	 0.00	 4.53	 28.56	 22.50	-9.43	-14.72	-50.06	-18.22	 0.59	-2.23	 0.02	 0.07	 0.00	-20.46	-39.79	 20.09	 17.18	 21.21	-47.77	 23.11	-1.87	 3.89	 0.13	 8.03	 29.43	-3.97	 3.97	 2.48	 30.24	 0.00	-8.38	 0.00	-20.23	 26.66	 9.39	 7.50	 7.07	-5.71	 0.00	-12.40	 0.00	
 4.77	 38.57	-11.09	 4.69	 23.03	 166.28	 3.27	 21.39	-3.80	-0.24	 30.58	 0.00	-13.62	-39.67	-50.61	-6.42	 0.00	 4.41	 28.74	 22.69	-9.59	-14.31	-50.47	-17.54	 0.59	-2.21	 0.02	 0.26	 0.00	-20.09	-40.00	 20.18	 17.30	 21.11	-47.81	 22.97	-1.88	 3.90	 0.13	 7.70	 29.13	-3.77	 4.03	 3.02	 30.31	 0.00	-8.72	 0.00	-20.28	 26.40	 9.33	 7.27	 7.15	-5.34	 0.00	-12.34	 0.00	
 4.74	 38.57	-11.11	 4.60	 23.10	 166.38	 3.21	 21.55	-3.75	-0.02	 30.58	 0.00	-13.44	-39.72	-48.56	-6.47	 0.00	 3.98	 28.78	 23.01	-9.71	-13.99	-51.03	-16.99	 0.60	-2.19	 0.02	 0.49	 0.00	-19.85	-40.11	 20.42	 17.51	 20.44	-47.98	 22.03	-1.89	 3.91	 0.13	 7.49	 28.72	-3.62	 4.07	 3.99	 30.06	 0.00	-9.31	 0.00	-20.35	 26.50	 9.40	 7.14	 7.11	-5.24	 0.00	-12.35	 0.00	
 4.71	 38.57	-11.14	 4.45	 23.35	 166.79	 3.08	 21.94	-3.68	 0.24	 30.59	 0.00	-13.22	-39.78	-46.35	-6.23	 0.00	 3.37	 28.52	 23.29	-9.65	-13.95	-51.32	-16.90	 0.60	-2.18	 0.02	 0.61	 0.00	-19.93	-39.99	 20.63	 17.62	 19.53	-48.09	 20.76	-1.89	 3.92	 0.13	 7.44	 28.19	-3.53	 3.98	 5.41	 29.50	 0.00	-10.18	 0.00	-20.48	 26.94	 9.60	 7.18	 6.94	-5.73	 0.00	-12.36	 0.00	
 4.68	 38.58	-11.18	 4.27	 23.75	 167.39	 2.93	 22.58	-3.72	 0.55	 30.68	 0.00	-12.95	-39.85	-44.02	-5.76	 0.00	 3.12	 28.05	 23.25	-9.40	-14.32	-51.15	-17.47	 0.60	-2.18	 0.02	 0.59	 0.00	-20.47	-39.70	 20.43	 17.39	 19.17	-47.87	 20.30	-1.89	 3.94	 0.13	 7.56	 27.48	-3.50	 3.65	 7.43	 28.74	 0.00	-11.45	 0.00	-20.64	 27.60	 9.90	 7.31	 6.75	-6.61	 0.00	-12.31	 0.00	
 4.65	 38.58	-11.24	 4.13	 24.21	 168.08	 2.76	 23.37	-4.02	 0.92	 30.88	 0.00	-12.61	-39.94	-41.61	-5.25	 0.00	 3.37	 27.60	 23.00	-9.12	-14.59	-50.79	-17.93	 0.60	-2.19	 0.02	 0.67	 0.00	-21.15	-39.58	 19.78	 16.91	 19.66	-47.21	 21.09	-1.90	 3.96	 0.13	 7.95	 26.49	-3.57	 2.95	 10.19	 27.86	 0.00	-13.09	 0.00	-20.71	 28.32	 10.17	 7.39	 6.73	-7.40	 0.00	-12.26	 0.00	
 4.63	 38.58	-11.30	 4.11	 24.70	 168.80	 2.57	 24.16	-4.68	 1.40	 31.13	 0.00	-12.15	-40.05	-39.19	-4.84	 0.00	 3.88	 27.20	 22.94	-9.03	-14.05	-50.68	-17.26	 0.60	-2.20	 0.02	 1.02	 0.00	-21.19	-39.75	 19.22	 16.53	 20.27	-46.54	 22.11	-1.90	 3.98	 0.13	 8.63	 25.34	-3.72	 2.03	 13.36	 26.95	 0.00	-14.79	 0.00	-20.50	 29.01	 10.28	 7.31	 7.03	-7.99	 0.00	-12.42	 0.00	
 4.60	 38.55	-11.40	 4.26	 25.29	 169.56	 2.35	 25.06	-5.48	 2.05	 31.36	 0.00	-11.54	-40.19	-36.78	-4.40	 0.00	 4.48	 26.80	 23.07	-9.06	-13.08	-51.14	-15.85	 0.60	-2.19	 0.02	 1.59	 0.00	-20.56	-40.07	 19.02	 16.38	 20.28	-46.50	 22.14	-1.90	 3.97	 0.13	 9.51	 24.48	-3.97	 1.12	 16.25	 26.09	 0.00	-16.25	 0.00	-19.99	 29.69	 10.21	 7.01	 7.87	-8.51	 0.00	-12.95	 0.00	
 4.58	 38.53	-11.53	 4.51	 26.10	 170.44	 2.05	 26.37	-6.08	 2.91	 31.58	 0.00	-10.76	-40.35	-34.44	-3.74	 0.00	 5.13	 26.43	 23.01	-9.03	-12.54	-52.24	-14.83	 0.60	-2.15	 0.02	 2.27	 0.00	-20.08	-40.33	 18.83	 16.24	 19.51	-47.19	 20.79	-1.89	 3.94	 0.13	 10.56	 24.25	-4.38	 0.33	 18.32	 25.20	 0.00	-17.45	 0.00	-19.21	 30.39	 10.00	 6.58	 9.40	-9.14	 0.00	-13.83	 0.00	
 4.56	 38.54	-11.62	 4.71	 27.00	 171.75	 1.64	 28.19	-6.68	 3.96	 31.84	 0.00	-9.83	-40.53	-32.21	-2.73	 0.00	 5.80	 26.04	 22.50	-8.77	-12.78	-53.66	-14.74	 0.61	-2.09	 0.02	 3.17	 0.00	-20.11	-40.47	 18.30	 15.81	 17.88	-48.13	 18.15	-1.88	 3.91	 0.13	 11.76	 24.19	-4.87	-0.23	 19.85	 23.79	 0.00	-18.48	 0.00	-18.12	 30.93	 9.55	 6.21	 11.61	-10.24	 0.00	-14.76	 0.00	
 4.54	 38.57	-11.56	 4.61	 27.53	 173.95	 1.16	 30.25	-7.84	 5.11	 32.27	 0.00	-8.79	-40.70	-30.13	-1.19	 0.00	 6.39	 25.49	 21.40	-8.14	-13.96	-55.00	-15.82	 0.62	-2.03	 0.02	 4.48	 0.00	-20.29	-40.40	 17.44	 15.00	 15.52	-48.95	 14.53	-1.87	 3.88	 0.13	 13.02	 23.14	-5.19	-0.30	 21.64	 21.16	 0.00	-19.45	 0.00	-16.73	 30.63	 8.71	 6.43	 14.68	-12.10	 0.00	-15.43	 0.00	
 4.52	 38.59	-11.35	 4.28	 27.53	 176.74	 0.61	 32.39	-9.24	 6.19	 32.99	 0.00	-7.76	-40.86	-28.26	 0.89	 0.00	 6.53	 24.68	 19.81	-7.09	-15.83	-55.91	-17.78	 0.63	-1.97	 0.02	 6.02	 0.00	-20.52	-39.99	 16.47	 13.92	 13.54	-49.25	 11.65	-1.86	 3.86	 0.13	 14.04	 20.87	-5.09	 0.24	 23.93	 17.60	 0.00	-20.40	 0.00	-15.50	 28.88	 7.63	 7.62	 19.06	-14.36	 0.00	-15.49	 0.00	
 4.50	 38.58	-11.04	 3.96	 27.08	 179.13	-0.20	 34.50	-9.84	 7.02	 34.00	 0.00	-6.85	-40.99	-26.62	 3.16	 0.00	 5.91	 23.74	 17.96	-5.75	-17.51	-56.51	-19.53	 0.64	-1.92	 0.02	 7.43	 0.00	-20.97	-39.33	 15.39	 12.71	 13.61	-48.87	 11.80	-1.87	 3.87	 0.13	 14.63	 18.02	-4.62	 0.99	 26.46	 14.26	 0.00	-21.30	 0.00	-14.92	 25.50	 6.54	 9.48	 24.93	-15.86	 0.00	-14.38	 0.00	
 4.49	 38.49	-10.65	 3.77	 26.00	-179.31	-1.34	 36.22	-9.49	 7.52	 35.19	 0.00	-6.22	-41.09	-25.28	 5.11	 0.00	 4.71	 23.12	 15.89	-4.30	-18.70	-57.28	-20.57	 0.65	-1.86	 0.02	 8.65	 0.00	-21.39	-38.75	 14.17	 11.48	 15.73	-48.32	 14.91	-1.88	 3.89	 0.13	 14.92	 14.54	-3.83	 1.50	 29.29	 11.64	 0.00	-22.16	 0.00	-15.11	 20.31	 5.36	 11.62	 31.90	-16.02	 0.00	-11.62	 0.00	
 4.48	 38.27	-10.21	 3.95	 24.31	-178.75	-2.42	 37.35	-8.48	 7.74	 36.28	 0.00	-5.90	-41.15	-24.25	 6.26	 0.00	 3.36	 23.25	 13.64	-2.90	-20.09	-58.62	-21.64	 0.66	-1.78	 0.02	 9.64	 0.00	-21.26	-38.51	 13.18	 10.50	 17.87	-48.99	 17.78	-1.85	 3.81	 0.12	 15.30	 10.66	-2.90	 1.44	 32.21	 10.10	 0.00	-22.88	 0.00	-15.77	 13.82	 3.86	 13.55	 38.88	-14.71	 0.00	-8.10	 0.00	
